<svg xmlns="http://www.w3.org/2000/svg" viewBox="0 0 16 16" class="design-iconfont">
  <path d="M8,1.33333333 C11.3137085,1.33333333 14,4.01962483 14,7.33333333 C14,8.91487603 13.3880917,10.3534999 12.3881109,11.425369 L12.2426407,11.575974 L8.94280904,14.8758057 C8.42210999,15.3965047 7.57789001,15.3965047 7.05719096,14.8758057 L3.75735931,11.575974 L3.61188914,11.425369 C2.61190834,10.3534999 2,8.91487603 2,7.33333333 C2,4.01962483 4.6862915,1.33333333 8,1.33333333 Z M8,4 C6.15905083,4 4.66666667,5.49238417 4.66666667,7.33333333 C4.66666667,9.1742825 6.15905083,10.6666667 8,10.6666667 C9.84094917,10.6666667 11.3333333,9.1742825 11.3333333,7.33333333 C11.3333333,5.49238417 9.84094917,4 8,4 Z" fill="#60759F" fill-rule="evenodd"/>
</svg>
